#!OML:ASF H:\Terrain\Patient Classification 1\Walking\steve\steve.ASF
:FULLY-SPECIFIED
:DEGREES
106
root 6.9107 15.2439 -10.6117 10.4997 3.05552 -0.976138
lowerback 6.33679 -0.121538 3.39524
upperback -2.31416 0.452854 5.51103
thorax -6.0109 0.211731 3.81658
lowerneck -9.49022 0.250372 1.33112
upperneck 12.9904 0.84547 -4.94208
head 5.50328 0.127835 -1.70414
rclavicle 9.74045e-015 -1.27222e-014
rhumerus -22.9335 -4.00384 -77.2514
rradius 26.6951
rwrist -7.99081
rhand -20.9185 -35.5298
rfingers 7.12502
rthumb 5.45306 -65.4396
lclavicle 9.74045e-015 -1.27222e-014
lhumerus -20.3944 6.81263 87.64
lradius 26.6646
lwrist 22.4584
lhand -22.883 -11.3105
lfingers 7.12502
lthumb 3.55611 18.6395
rfemur -35.2057 1.60753 26.8583
rtibia 57.8864
rfoot -28.3603 11.5071
rtoes 10.9329
lfemur -24.7373 2.16496 -22.2181
ltibia 68.0443
lfoot -18.5078 0.827087
ltoes -18.7618
107
root 6.92348 15.2971 -10.3792 10.2935 2.82703 -1.18532
lowerback 6.01717 0.0901121 3.59087
upperback -2.19442 0.713736 5.38223
thorax -5.70735 0.331173 3.53425
lowerneck -9.44481 0.084482 1.39356
upperneck 13.3605 0.612108 -4.84925
head 5.60275 0.0201542 -1.70533
rclavicle 2.5842e-015 -6.67916e-014
rhumerus -21.0852 -3.20637 -78.1058
rradius 27.7307
rwrist -8.13865
rhand -19.9149 -36.2571
rfingers 7.12502
rthumb 6.42195 -66.1398
lclavicle 2.5842e-015 -6.67916e-014
lhumerus -22.3243 7.3324 87.0574
lradius 24.7221
lwrist 22.5268
lhand -23.6233 -10.8558
lfingers 7.12502
lthumb 2.8412 19.1051
rfemur -33.4393 1.13994 27.1213
rtibia 56.4964
rfoot -27.226 12.7229
rtoes 13.1367
lfemur -26.6147 1.91906 -22.0276
ltibia 67.6686
lfoot -19.5994 0.387496
ltoes -17.4561
108
root 6.93123 15.349 -10.145 10.1141 2.52377 -1.63801
lowerback 5.67859 0.457882 4.08011
upperback -2.07373 1.20422 5.26559
thorax -5.39177 0.555824 3.0806
lowerneck -9.08018 -0.18024 1.15165
upperneck 13.3468 0.230002 -4.44001
head 5.52302 -0.144031 -1.56368
rclavicle 9.34288e-015 -4.29375e-014
rhumerus -19.2718 -2.61046 -78.8251
rradius 28.66
rwrist -8.99891
rhand -19.0051 -36.2392
rfingers 7.12502
rthumb 7.30021 -66.0933
lclavicle 9.34288e-015 -4.29375e-014
lhumerus -24.3021 7.74323 86.4155
lradius 22.9604
lwrist 21.5929
lhand -24.0062 -9.67555
lfingers 7.12502
lthumb 2.47135 20.2899
rfemur -31.6963 0.831586 27.5769
rtibia 55.2035
rfoot -27.9603 10.8754
rtoes 0.392189
lfemur -28.4175 2.00934 -21.5349
ltibia 67.1029
lfoot -20.6363 1.13567
ltoes -19.1159
109
root 6.93939 15.4061 -9.90616 10.0062 2.07739 -2.15866
lowerback 5.38575 0.877406 4.50066
upperback -2.0288 1.76709 5.21582
thorax -5.17783 0.821159 2.73727
lowerneck -8.86191 -0.334661 1.09073
upperneck 13.4137 -0.00748222 -4.16469
head 5.49958 -0.241283 -1.48402
rclavicle -2.24627e-014 -4.6118e-014
rhumerus -17.4569 -1.80234 -79.3653
rradius 29.3818
rwrist -10.1523
rhand -17.8651 -32.5883
rfingers 7.12502
rthumb 8.40055 -62.4012
lclavicle -2.24627e-014 -4.6118e-014
lhumerus -26.6026 8.5932 85.5352
lradius 21.5892
lwrist 19.4925
lhand -23.7875 -8.70168
lfingers 7.12502
lthumb 2.6826 21.2612
rfemur -29.9604 0.621386 28.057
rtibia 53.9705
rfoot -27.8292 11.5196
rtoes 0.0284689
lfemur -30.1765 2.20373 -20.9792
ltibia 66.2342
lfoot -21.5033 2.65683
ltoes -21.374
110
root 6.95352 15.4582 -9.66161 9.77851 1.59981 -2.43977
lowerback 5.37673 1.23093 4.67117
upperback -2.11416 2.25466 5.1604
thorax -5.26199 1.05424 2.53663
lowerneck -8.23953 -0.480369 1.09009
upperneck 13.273 -0.207785 -4.17225
head 5.34363 -0.33131 -1.49611
rclavicle -1.70955e-014 3.97569e-014
rhumerus -15.996 -1.00223 -79.6991
rradius 30.2744
rwrist -10.6987
rhand -17.8172 -35.0001
rfingers 7.12502
rthumb 8.44679 -64.8112
lclavicle -1.70955e-014 3.97569e-014
lhumerus -29.3097 9.30599 84.4985
lradius 20.4865
lwrist 16.865
lhand -23.2822 -7.19864
lfingers 7.12502
lthumb 3.17054 22.7575
rfemur -28.0609 0.306983 28.2297
rtibia 52.7034
rfoot -27.4428 12.2882
rtoes -0.657637
lfemur -31.651 2.07493 -20.6544
ltibia 65.0183
lfoot -22.3997 2.60851
ltoes -19.7331
111
root 6.96538 15.5081 -9.41384 9.51799 1.10451 -2.77849
lowerback 5.40636 1.59338 4.8782
upperback -2.15692 2.75756 5.11713
thorax -5.31872 1.29391 2.32598
lowerneck -7.48921 -0.715513 0.747323
upperneck 13.0144 -0.525603 -3.90958
head 5.12909 -0.475364 -1.37246
rclavicle 7.35503e-015 5.56597e-014
rhumerus -14.7875 -0.0191954 -80.0203
rradius 31.6423
rwrist -11.6249
rhand -17.0806 -35.1486
rfingers 7.12502
rthumb 9.15761 -64.9298
lclavicle 7.35503e-015 5.56597e-014
lhumerus -31.7492 9.61127 83.404
lradius 19.15
lwrist 13.9958
lhand -22.5939 -5.15938
lfingers 7.12502
lthumb 3.8353 24.7859
rfemur -26.0762 0.16344 28.4314
rtibia 51.3072
rfoot -26.9987 12.965
rtoes -1.8734
lfemur -33.0349 1.93388 -20.209
ltibia 63.5831
lfoot -22.5496 1.85635
ltoes -17.9459
112
root 6.97164 15.5665 -9.16493 9.44964 0.55019 -3.13352
lowerback 5.08681 2.01212 5.05518
upperback -2.11613 3.29358 5.02905
thorax -5.08219 1.55533 2.09426
lowerneck -7.50675 -0.907058 0.478213
upperneck 13.4194 -0.796313 -3.48664
head 5.25445 -0.596175 -1.21759
rclavicle 1.11319e-014 -3.02153e-014
rhumerus -13.4764 1.36502 -80.325
rradius 33.0893
rwrist -13.3959
rhand -17.3519 -35.2812
rfingers 7.12502
rthumb 8.89579 -65.0737
lclavicle 1.11319e-014 -3.02153e-014
lhumerus -34.0064 9.572 82.2956
lradius 17.8435
lwrist 11.3265
lhand -22.5878 -5.50194
lfingers 7.12502
lthumb 3.8412 24.4432
rfemur -24.3052 0.238054 28.6345
rtibia 49.81
rfoot -26.2242 13.7569
rtoes -1.6297
lfemur -34.5467 1.91384 -19.6731
ltibia 61.9464
lfoot -22.6759 1.47486
ltoes -17.6447
113
root 6.97529 15.6432 -8.91882 9.40362 -0.051023 -3.20941
lowerback 4.72173 2.45058 4.96083
upperback -2.01021 3.82289 4.83717
thorax -4.75548 1.82334 1.915
lowerneck -8.13287 -1.06061 0.380791
upperneck 14.179 -1.01704 -3.1503
head 5.59589 -0.696115 -1.12265
rclavicle -9.14409e-015 -5.88403e-014
rhumerus -11.8847 2.65404 -80.4952
rradius 34.1962
rwrist -15.0844
rhand -18.0345 -35.6885
rfingers 7.12502
rthumb 8.23706 -65.5079
lclavicle -9.14409e-015 -5.88403e-014
lhumerus -36.1735 9.3486 81.1609
lradius 16.8848
lwrist 8.84472
lhand -21.7773 -6.91486
lfingers 7.12502
lthumb 4.6238 23.0147
rfemur -22.547 0.337275 28.5036
rtibia 48.2574
rfoot -24.7795 14.7087
rtoes -0.0638317
lfemur -35.9935 1.81822 -19.3087
ltibia 60.0969
lfoot -22.6691 0.721792
ltoes -14.7325
114
root 6.98112 15.7053 -8.6749 9.26519 -0.620024 -3.30666
lowerback 4.72123 2.8181 4.77707
upperback -1.97413 4.29381 4.72907
thorax -4.72145 2.06144 1.86504
lowerneck -8.43905 -1.19968 0.00138405
upperneck 14.5427 -1.22284 -2.61048
head 5.76525 -0.781762 -0.911096
rclavicle -1.66979e-014 -4.92986e-014
rhumerus -10.1977 3.78429 -80.4957
rradius 34.8995
rwrist -16.1363
rhand -18.2158 -37.9429
rfingers 7.12502
rthumb 8.06202 -67.7691
lclavicle -1.66979e-014 -4.92986e-014
lhumerus -38.5891 9.16068 80.0622
lradius 16.3283
lwrist 6.50629
lhand -18.6536 -7.6908
lfingers 7.12502
lthumb 7.63949 22.1512
rfemur -20.6528 0.376783 28.3927
rtibia 46.7184
rfoot -23.5364 15.3229
rtoes -0.490407
lfemur -37.1178 1.77504 -18.998
ltibia 58.0983
lfoot -22.7834 0.892628
ltoes -13.6899
115
root 6.99115 15.7436 -8.42461 9.13737 -1.08572 -3.7891
lowerback 4.73264 3.13412 5.06454
upperback -2.02638 4.73713 4.69025
thorax -4.75791 2.27011 1.62752
lowerneck -8.03461 -1.33646 -0.0779708
upperneck 14.3615 -1.42182 -2.48848
head 5.63783 -0.870273 -0.86906
rclavicle -4.87022e-014 -4.45278e-014
rhumerus -8.63743 4.98116 -80.4441
rradius 35.6679
rwrist -17.0527
rhand -18.0774 -40.7809
rfingers 7.12502
rthumb 8.19559 -70.6019
lclavicle -4.87022e-014 -4.45278e-014
lhumerus -41.2588 8.782 78.9302
lradius 15.8988
lwrist 4.28623
lhand -20.2151 -10.3049
lfingers 7.12502
lthumb 6.13218 19.5863
rfemur -18.7944 0.268715 28.7075
rtibia 45.2146
rfoot -22.7112 15.8665
rtoes -3.43262
lfemur -37.9946 1.76077 -18.3932
ltibia 56.016
lfoot -23.0573 1.8923
ltoes -15.9769
116
root 6.99774 15.7832 -8.17259 9.17503 -1.62006 -4.13023
lowerback 4.30493 3.51074 5.44331
upperback -1.99326 5.20852 4.39755
thorax -4.41702 2.49431 1.10709
lowerneck -7.47878 -1.47072 0.725775
upperneck 13.7841 -1.64851 -3.01712
head 5.34636 -0.969117 -1.17137
rclavicle 4.23411e-014 3.97569e-014
rhumerus -6.96691 5.72096 -80.5918
rradius 36.5343
rwrist -17.9813
rhand -18.2718 -38.2678
rfingers 7.12502
rthumb 8.00805 -68.0961
lclavicle 4.23411e-014 3.97569e-014
lhumerus -43.5159 7.91507 77.6802
lradius 15.4199
lwrist 2.49635
lhand -20.3833 -10.945
lfingers 7.12502
lthumb 5.96976 18.9509
rfemur -17.1304 0.144705 28.8738
rtibia 43.7025
rfoot -21.9192 16.4509
rtoes -7.89511
lfemur -39.0247 1.89073 -17.9265
ltibia 53.9033
lfoot -23.1418 2.89712
ltoes -20.221
117
root 7.00281 15.8218 -7.92623 9.22298 -2.18939 -4.33956
lowerback 3.86807 3.82553 5.70294
upperback -1.85816 5.57739 4.04661
thorax -3.96172 2.67625 0.613644
lowerneck -7.30074 -1.50054 1.51161
upperneck 13.2902 -1.74934 -3.37821
head 5.14875 -1.00006 -1.41243
rclavicle -4.57205e-014 -6.99722e-014
rhumerus -4.96879 6.2277 -80.8233
rradius 37.0997
rwrist -18.588
rhand -19.8572 -40.7279
rfingers 7.12502
rthumb 6.4777 -70.6088
lclavicle -4.57205e-014 -6.99722e-014
lhumerus -45.6763 7.1291 76.42
lradius 15.1927
lwrist 1.29089
lhand -19.451 -10.0239
lfingers 7.12502
lthumb 6.86978 19.8446
rfemur -15.4834 0.142913 28.896
rtibia 42.1208
rfoot -20.9942 16.9163
rtoes -8.99708
lfemur -40.1396 2.11438 -17.5305
ltibia 51.7738
lfoot -23.2173 3.07215
ltoes -20.5754
